<svg width="12" height="12" viewBox="0 0 12 12" fill="none" xmlns="http://www.w3.org/2000/svg">
<path d="M8 1H4C2 1 1 2 1 4V10.5C1 10.775 1.225 11 1.5 11H8C10 11 11 10 11 8V4C11 2 10 1 8 1Z" stroke="white" stroke-width="1.5" stroke-linecap="round" stroke-linejoin="round"/>
<path d="M6.45502 3.92002L3.86002 6.51501C3.76002 6.61501 3.66502 6.81002 3.64502 6.95002L3.50502 7.94002C3.45502 8.30002 3.70502 8.55002 4.06502 8.50002L5.05501 8.36002C5.19501 8.34002 5.39002 8.24502 5.49002 8.14502L8.08502 5.55001C8.53002 5.10501 8.74502 4.58501 8.08502 3.92501C7.42502 3.26001 6.90502 3.47002 6.45502 3.92002Z" stroke="white" stroke-width="1.5" stroke-miterlimit="10" stroke-linecap="round" stroke-linejoin="round"/>
<path d="M6.08502 4.29001C6.30502 5.07501 6.92002 5.69501 7.71002 5.91501" stroke="white" stroke-width="1.5" stroke-miterlimit="10" stroke-linecap="round" stroke-linejoin="round"/>
</svg>
