<svg width="24" height="24" viewBox="0 0 24 24" fill="none" xmlns="http://www.w3.org/2000/svg">
<path d="M11.6667 0C5.23367 0 0 5.23367 0 11.6667C0 18.0997 5.23367 23.3333 11.6667 23.3333C18.0997 23.3333 23.3333 18.0997 23.3333 11.6667C23.3333 5.23367 18.0997 0 11.6667 0ZM11.6667 21C6.5205 21 2.33333 16.8128 2.33333 11.6667C2.33333 6.5205 6.5205 2.33333 11.6667 2.33333C16.8128 2.33333 21 6.5205 21 11.6667C21 16.8128 16.8128 21 11.6667 21Z" fill="white"/>
<path d="M8.1665 17.4997L17.4998 11.6663L8.1665 5.83301V17.4997Z" fill="white"/>
</svg>
